<svg width="1424" height="544" viewBox="0 0 1424 544" fill="none" xmlns="http://www.w3.org/2000/svg">
<g clip-path="url(#clip0_212_16580)" filter="url(#filter0_f_212_16580)">
<path opacity="0.15" d="M1358.19 183.88C1391.7 220.97 1418.88 285.451 1368.8 330.973C1363.63 335.666 1315.18 378.248 1242.3 372.96C1153.54 366.52 1135.34 296.812 1037.38 278.716C931.298 259.119 869.037 325.425 817.231 305.056C755.971 280.97 748.451 151.071 859.331 95.3957C992.906 28.3255 1268.08 84.1512 1358.19 183.88Z" fill="#EBC136"/>
<path opacity="0.15" d="M523.245 375.639C554.307 356.569 588.155 318.148 567.134 279.285C564.966 275.278 544.262 238.654 495.679 229.834C436.505 219.09 407.162 262.52 339.092 257.996C265.375 253.096 241.688 198.301 202.971 203.114C157.189 208.806 119.627 294.21 177.513 350.149C247.248 417.538 439.723 426.917 523.245 375.639Z" fill="#EBC136"/>
<path opacity="0.15" d="M705.575 267.89C690.187 246.799 674.464 206.221 687.947 168.859C689.337 165.007 702.519 129.857 728.877 124.297C760.983 117.526 774.013 162.799 810.481 162.823C849.973 162.849 865.817 109.774 886.122 117.155C910.131 125.883 925.044 213.57 890.944 265.508C849.865 328.075 746.953 324.602 705.575 267.89Z" fill="#EBC136"/>
<path opacity="0.15" d="M693.467 220.802C710.285 210.124 728.622 188.633 717.277 166.936C716.107 164.699 704.931 144.254 678.654 139.363C646.649 133.407 630.745 157.693 593.923 155.218C554.047 152.538 541.27 121.943 520.322 124.661C495.55 127.876 475.171 175.62 506.448 206.828C544.128 244.423 648.247 249.514 693.467 220.802Z" fill="#EBC136"/>
<path opacity="0.15" d="M1417.62 194.365C1435.76 178.046 1455.7 145.494 1443.95 113.192C1442.74 109.861 1431.14 79.4303 1403.17 72.5947C1369.09 64.2688 1351.7 100.965 1312.42 97.9464C1269.89 94.678 1256.75 49.0665 1234.34 53.5345C1207.83 58.8178 1185.28 130.751 1218.15 176.934C1257.76 232.569 1368.86 238.244 1417.62 194.365Z" fill="#8047F8"/>
<path opacity="0.15" d="M1429.61 323.852C1443.71 334.804 1459.15 356.725 1449.84 378.622C1448.88 380.88 1439.7 401.511 1417.82 406.261C1391.16 412.047 1377.73 387.312 1347.03 389.533C1313.79 391.938 1303.35 422.841 1285.86 419.922C1265.17 416.471 1247.84 367.932 1273.71 336.552C1304.88 298.749 1391.69 294.404 1429.61 323.852Z" fill="#8047F8"/>
<path opacity="0.15" d="M230.937 82.8915C243.507 104.616 255.932 146.056 243.695 183.492C242.433 187.351 230.5 222.558 208.055 227.502C180.717 233.524 170.675 187.405 139.792 186.442C106.347 185.4 91.7653 238.665 74.7319 230.678C54.5904 221.234 43.883 132.175 73.8998 80.5305C110.06 18.3152 197.139 24.4763 230.937 82.8915Z" fill="#EBC136"/>
<path opacity="0.15" d="M872.507 378.947C846.621 359.727 821.462 321.18 847.926 282.528C850.654 278.543 876.434 242.123 923.6 233.62C981.048 223.262 1001.11 266.78 1065.84 262.683C1135.94 258.246 1167.66 203.712 1203.2 208.753C1245.23 214.713 1265.76 300.166 1201.71 355.631C1124.55 422.449 942.112 430.627 872.507 378.947Z" fill="#EBC136"/>
<path opacity="0.15" d="M798.922 345.538C820.564 326.513 843.249 289.904 825.967 256.187C824.185 252.71 807.248 220.989 771.43 215.962C727.805 209.84 708.654 250.687 658.868 250.695C604.953 250.704 584.92 202.808 556.979 209.46C523.939 217.327 500.942 296.444 545.931 343.321C600.129 399.792 740.728 396.695 798.922 345.538Z" fill="#8047F8"/>
<path opacity="0.15" d="M846.472 87.0038C887.019 97.6655 930.079 117.465 899.336 134.257C896.167 135.989 865.993 151.762 800.11 153.009C719.863 154.528 683.181 132.67 591.369 130.784C491.943 128.742 456.601 152.767 404.852 148.269C343.659 142.95 298.602 101.145 380 78.5908C478.058 51.42 737.443 58.3353 846.472 87.0038Z" fill="#8047F8"/>
<path opacity="0.15" d="M179.139 328.866C198.225 306.714 218.35 264.381 203.454 225.978C201.918 222.018 187.31 185.899 155.98 180.685C117.82 174.335 100.761 221.475 57.1632 222.25C9.94912 223.089 -7.25576 168.467 -31.7709 176.526C-60.7595 186.056 -81.4579 277.145 -42.3915 330.214C4.67082 394.144 127.816 388.431 179.139 328.866Z" fill="#8047F8"/>
</g>
<defs>
<filter id="filter0_f_212_16580" x="-176" y="-214" width="1760" height="864" filterUnits="userSpaceOnUse" color-interpolation-filters="sRGB">
<feFlood flood-opacity="0" result="BackgroundImageFix"/>
<feBlend mode="normal" in="SourceGraphic" in2="BackgroundImageFix" result="shape"/>
<feGaussianBlur stdDeviation="80" result="effect1_foregroundBlur_212_16580"/>
</filter>
<clipPath id="clip0_212_16580">
<rect width="1440" height="544" fill="white" transform="translate(-16 -54)"/>
</clipPath>
</defs>
</svg>
