<svg width="1424" height="544" viewBox="0 0 1424 544" fill="none" xmlns="http://www.w3.org/2000/svg">
<g clip-path="url(#clip0_212_16580)" filter="url(#filter0_f_212_16580)">
<path opacity="0.15" d="M1374.19 183.88C1407.7 220.97 1434.88 285.451 1384.8 330.973C1379.63 335.666 1331.18 378.248 1258.3 372.96C1169.54 366.52 1151.34 296.812 1053.38 278.716C947.298 259.119 885.037 325.425 833.231 305.056C771.971 280.97 764.451 151.071 875.331 95.3957C1008.91 28.3255 1284.08 84.1512 1374.19 183.88Z" fill="#EBC136"/>
<path opacity="0.15" d="M539.245 375.639C570.307 356.569 604.155 318.148 583.134 279.285C580.966 275.278 560.262 238.654 511.679 229.834C452.505 219.09 423.162 262.52 355.092 257.996C281.375 253.096 257.688 198.301 218.971 203.114C173.189 208.806 135.627 294.21 193.513 350.149C263.248 417.538 455.723 426.917 539.245 375.639Z" fill="#EBC136"/>
<path opacity="0.15" d="M721.575 267.89C706.187 246.799 690.464 206.221 703.947 168.859C705.337 165.007 718.519 129.857 744.877 124.297C776.983 117.526 790.013 162.799 826.481 162.823C865.973 162.849 881.817 109.774 902.122 117.155C926.131 125.883 941.044 213.57 906.944 265.508C865.865 328.075 762.953 324.602 721.575 267.89Z" fill="#EBC136"/>
<path opacity="0.15" d="M709.467 220.802C726.285 210.124 744.622 188.633 733.277 166.936C732.107 164.699 720.931 144.254 694.654 139.363C662.649 133.407 646.745 157.693 609.923 155.218C570.047 152.538 557.27 121.943 536.322 124.661C511.55 127.876 491.171 175.62 522.448 206.828C560.128 244.423 664.247 249.514 709.467 220.802Z" fill="#EBC136"/>
<path opacity="0.15" d="M1433.62 194.365C1451.76 178.046 1471.7 145.494 1459.95 113.192C1458.74 109.861 1447.14 79.4303 1419.17 72.5947C1385.09 64.2688 1367.7 100.965 1328.42 97.9464C1285.89 94.678 1272.75 49.0665 1250.34 53.5345C1223.83 58.8178 1201.28 130.751 1234.15 176.934C1273.76 232.569 1384.86 238.244 1433.62 194.365Z" fill="#8047F8"/>
<path opacity="0.15" d="M1445.61 323.852C1459.71 334.804 1475.15 356.725 1465.84 378.622C1464.88 380.88 1455.7 401.511 1433.82 406.261C1407.16 412.047 1393.73 387.312 1363.03 389.533C1329.79 391.938 1319.35 422.841 1301.86 419.922C1281.17 416.471 1263.84 367.932 1289.71 336.552C1320.88 298.749 1407.69 294.404 1445.61 323.852Z" fill="#8047F8"/>
<path opacity="0.15" d="M246.937 82.8915C259.507 104.616 271.932 146.056 259.695 183.492C258.433 187.351 246.5 222.558 224.055 227.502C196.717 233.524 186.675 187.405 155.792 186.442C122.347 185.4 107.765 238.665 90.7319 230.678C70.5904 221.234 59.883 132.175 89.8998 80.5305C126.06 18.3152 213.139 24.4763 246.937 82.8915Z" fill="#EBC136"/>
<path opacity="0.15" d="M888.507 378.947C862.621 359.727 837.462 321.18 863.926 282.528C866.654 278.543 892.434 242.123 939.6 233.62C997.048 223.262 1017.11 266.78 1081.84 262.683C1151.94 258.246 1183.66 203.712 1219.2 208.753C1261.23 214.713 1281.76 300.166 1217.71 355.631C1140.55 422.449 958.112 430.627 888.507 378.947Z" fill="#EBC136"/>
<path opacity="0.15" d="M814.922 345.538C836.564 326.513 859.249 289.904 841.967 256.187C840.185 252.71 823.248 220.989 787.43 215.962C743.805 209.84 724.654 250.687 674.868 250.695C620.953 250.704 600.92 202.808 572.979 209.46C539.939 217.327 516.942 296.444 561.931 343.321C616.129 399.792 756.728 396.695 814.922 345.538Z" fill="#8047F8"/>
<path opacity="0.15" d="M862.472 87.0038C903.019 97.6655 946.079 117.465 915.336 134.257C912.167 135.989 881.993 151.762 816.11 153.009C735.863 154.528 699.181 132.67 607.369 130.784C507.943 128.742 472.601 152.767 420.852 148.269C359.659 142.95 314.602 101.145 396 78.5908C494.058 51.42 753.443 58.3353 862.472 87.0038Z" fill="#8047F8"/>
<path opacity="0.15" d="M195.139 328.866C214.225 306.714 234.35 264.381 219.454 225.978C217.918 222.018 203.31 185.899 171.98 180.685C133.82 174.335 116.761 221.475 73.1632 222.25C25.9491 223.089 8.74424 168.467 -15.7709 176.526C-44.7595 186.056 -65.4579 277.145 -26.3915 330.214C20.6708 394.144 143.816 388.431 195.139 328.866Z" fill="#8047F8"/>
</g>
<defs>
<filter id="filter0_f_212_16580" x="-160" y="-214" width="1760" height="864" filterUnits="userSpaceOnUse" color-interpolation-filters="sRGB">
<feFlood flood-opacity="0" result="BackgroundImageFix"/>
<feBlend mode="normal" in="SourceGraphic" in2="BackgroundImageFix" result="shape"/>
<feGaussianBlur stdDeviation="80" result="effect1_foregroundBlur_212_16580"/>
</filter>
<clipPath id="clip0_212_16580">
<rect width="1440" height="544" fill="white" transform="translate(0 -54)"/>
</clipPath>
</defs>
</svg>
