<svg width="1440" height="544" viewBox="0 0 1440 544" fill="none" xmlns="http://www.w3.org/2000/svg">
<g clip-path="url(#clip0_212_16580)" filter="url(#filter0_f_212_16580)">
<path opacity="0.15" d="M1420.19 225.88C1453.7 262.97 1480.88 327.451 1430.8 372.973C1425.63 377.666 1377.18 420.248 1304.3 414.96C1215.54 408.52 1197.34 338.812 1099.38 320.716C993.298 301.119 931.037 367.425 879.231 347.056C817.971 322.97 810.451 193.071 921.331 137.396C1054.91 70.3255 1330.08 126.151 1420.19 225.88Z" fill="#EBC136"/>
<path opacity="0.15" d="M585.245 417.639C616.307 398.569 650.155 360.148 629.134 321.285C626.966 317.278 606.262 280.654 557.679 271.834C498.505 261.09 469.162 304.52 401.092 299.996C327.375 295.096 303.688 240.301 264.971 245.114C219.189 250.806 181.627 336.21 239.513 392.149C309.248 459.538 501.723 468.917 585.245 417.639Z" fill="#EBC136"/>
<path opacity="0.15" d="M767.575 309.89C752.187 288.799 736.464 248.221 749.947 210.859C751.337 207.007 764.519 171.857 790.877 166.297C822.983 159.526 836.013 204.799 872.481 204.823C911.973 204.849 927.817 151.774 948.122 159.155C972.131 167.883 987.044 255.57 952.944 307.508C911.865 370.075 808.953 366.602 767.575 309.89Z" fill="#EBC136"/>
<path opacity="0.15" d="M755.467 262.802C772.285 252.124 790.622 230.633 779.277 208.936C778.107 206.699 766.931 186.254 740.654 181.363C708.649 175.407 692.745 199.693 655.923 197.218C616.047 194.538 603.27 163.943 582.322 166.661C557.55 169.876 537.171 217.62 568.448 248.828C606.128 286.423 710.247 291.514 755.467 262.802Z" fill="#EBC136"/>
<path opacity="0.15" d="M1479.62 236.365C1497.76 220.046 1517.7 187.494 1505.95 155.192C1504.74 151.861 1493.14 121.43 1465.17 114.595C1431.09 106.269 1413.7 142.965 1374.42 139.946C1331.89 136.678 1318.75 91.0665 1296.34 95.5345C1269.83 100.818 1247.28 172.751 1280.15 218.934C1319.76 274.569 1430.86 280.244 1479.62 236.365Z" fill="#8047F8"/>
<path opacity="0.15" d="M1491.61 365.852C1505.71 376.804 1521.15 398.725 1511.84 420.622C1510.88 422.88 1501.7 443.511 1479.82 448.261C1453.16 454.047 1439.73 429.312 1409.03 431.533C1375.79 433.938 1365.35 464.841 1347.86 461.922C1327.17 458.471 1309.84 409.932 1335.71 378.552C1366.88 340.749 1453.69 336.404 1491.61 365.852Z" fill="#8047F8"/>
<path opacity="0.15" d="M292.937 124.892C305.507 146.616 317.932 188.056 305.695 225.492C304.433 229.351 292.5 264.558 270.055 269.502C242.717 275.524 232.675 229.405 201.792 228.442C168.347 227.4 153.765 280.665 136.732 272.678C116.59 263.234 105.883 174.175 135.9 122.53C172.06 60.3152 259.139 66.4763 292.937 124.892Z" fill="#EBC136"/>
<path opacity="0.15" d="M934.507 420.947C908.621 401.727 883.462 363.18 909.926 324.528C912.654 320.543 938.434 284.123 985.6 275.62C1043.05 265.262 1063.11 308.78 1127.84 304.683C1197.94 300.246 1229.66 245.712 1265.2 250.753C1307.23 256.713 1327.76 342.166 1263.71 397.631C1186.55 464.449 1004.11 472.627 934.507 420.947Z" fill="#EBC136"/>
<path opacity="0.15" d="M860.922 387.538C882.564 368.513 905.249 331.904 887.967 298.187C886.185 294.71 869.248 262.989 833.43 257.962C789.805 251.84 770.654 292.687 720.868 292.695C666.953 292.704 646.92 244.808 618.979 251.46C585.939 259.327 562.942 338.444 607.931 385.321C662.129 441.792 802.728 438.695 860.922 387.538Z" fill="#8047F8"/>
<path opacity="0.15" d="M908.472 129.004C949.019 139.666 992.079 159.465 961.336 176.257C958.167 177.989 927.993 193.762 862.11 195.009C781.863 196.528 745.181 174.67 653.369 172.784C553.943 170.742 518.601 194.767 466.852 190.269C405.659 184.95 360.602 143.145 442 120.591C540.058 93.42 799.443 100.335 908.472 129.004Z" fill="#8047F8"/>
<path opacity="0.15" d="M241.139 370.866C260.225 348.714 280.35 306.381 265.454 267.978C263.918 264.018 249.31 227.899 217.98 222.685C179.82 216.335 162.761 263.475 119.163 264.25C71.9491 265.089 54.7442 210.467 30.2291 218.526C1.24046 228.056 -19.4579 319.145 19.6085 372.214C66.6708 436.144 189.816 430.431 241.139 370.866Z" fill="#8047F8"/>
</g>
<defs>
<filter id="filter0_f_212_16580" x="-114" y="-172" width="1760" height="864" filterUnits="userSpaceOnUse" color-interpolation-filters="sRGB">
<feFlood flood-opacity="0" result="BackgroundImageFix"/>
<feBlend mode="normal" in="SourceGraphic" in2="BackgroundImageFix" result="shape"/>
<feGaussianBlur stdDeviation="80" result="effect1_foregroundBlur_212_16580"/>
</filter>
<clipPath id="clip0_212_16580">
<rect width="1440" height="544" fill="white" transform="translate(46 -12)"/>
</clipPath>
</defs>
</svg>
