<svg width="16" height="20" viewBox="0 0 16 20" fill="none" xmlns="http://www.w3.org/2000/svg">
<path d="M7.95166 0.375C5.94666 0.377275 4.02443 1.17477 2.60668 2.59252C1.18893 4.01027 0.391435 5.9325 0.38916 7.9375C0.38916 14.4086 7.26416 19.2984 7.55635 19.5047C7.67344 19.5827 7.81098 19.6243 7.95166 19.6243C8.09234 19.6243 8.22988 19.5827 8.34697 19.5047C8.63916 19.2984 15.5142 14.4086 15.5142 7.9375C15.5119 5.9325 14.7144 4.01027 13.2966 2.59252C11.8789 1.17477 9.95666 0.377275 7.95166 0.375V0.375ZM7.95166 5.1875C8.49556 5.1875 9.02724 5.34878 9.47948 5.65096C9.93171 5.95313 10.2842 6.38262 10.4923 6.88512C10.7005 7.38762 10.7549 7.94055 10.6488 8.474C10.5427 9.00745 10.2808 9.49745 9.8962 9.88204C9.51161 10.2666 9.02161 10.5286 8.48816 10.6347C7.95471 10.7408 7.40178 10.6863 6.89928 10.4782C6.39678 10.27 5.96729 9.91755 5.66512 9.46532C5.36295 9.01308 5.20166 8.4814 5.20166 7.9375C5.20166 7.20815 5.49139 6.50868 6.00712 5.99296C6.52284 5.47723 7.22231 5.1875 7.95166 5.1875V5.1875Z" fill="#ebe5f9"/>
</svg>
